<mxfile host="app.diagrams.net" agent="Mozilla/5.0 (Windows NT 10.0; Win64; x64) AppleWebKit/537.36 (KHTML, like Gecko) Chrome/138.0.0.0 Safari/537.36 Edg/138.0.0.0" version="27.2.0">
  <diagram name="第 1 页" id="IVoLAnSsjmoHZBqLm_kL">
    <mxGraphModel dx="2798" dy="1118" grid="1" gridSize="10" guides="1" tooltips="1" connect="1" arrows="1" fold="1" page="1" pageScale="1" pageWidth="827" pageHeight="1169" math="0" shadow="0">
      <root>
        <mxCell id="0" />
        <mxCell id="1" parent="0" />
        <mxCell id="LukmQ__puzyjG5yde1o3-6" value="" style="rounded=1;whiteSpace=wrap;html=1;fontSize=16;fillColor=#f8cecc;strokeColor=#b85450;" vertex="1" parent="1">
          <mxGeometry x="-30" y="405" width="170" height="485" as="geometry" />
        </mxCell>
        <mxCell id="LukmQ__puzyjG5yde1o3-26" value="" style="rounded=1;whiteSpace=wrap;html=1;fillColor=#d5e8d4;strokeColor=#82b366;" vertex="1" parent="1">
          <mxGeometry x="210" y="390" width="320" height="510" as="geometry" />
        </mxCell>
        <mxCell id="LukmQ__puzyjG5yde1o3-34" style="edgeStyle=orthogonalEdgeStyle;rounded=0;orthogonalLoop=1;jettySize=auto;html=1;exitX=0.5;exitY=1;exitDx=0;exitDy=0;entryX=1;entryY=0.5;entryDx=0;entryDy=0;" edge="1" parent="1" source="LukmQ__puzyjG5yde1o3-1" target="LukmQ__puzyjG5yde1o3-23">
          <mxGeometry relative="1" as="geometry" />
        </mxCell>
        <mxCell id="LukmQ__puzyjG5yde1o3-1" value="监听模拟器内etw事件" style="rounded=1;whiteSpace=wrap;html=1;fontSize=16;" vertex="1" parent="1">
          <mxGeometry x="360" y="650" width="120" height="60" as="geometry" />
        </mxCell>
        <mxCell id="LukmQ__puzyjG5yde1o3-5" value="" style="edgeStyle=orthogonalEdgeStyle;rounded=0;orthogonalLoop=1;jettySize=auto;html=1;fontSize=16;" edge="1" parent="1">
          <mxGeometry relative="1" as="geometry">
            <mxPoint x="-370" y="250" as="sourcePoint" />
            <mxPoint x="-480" y="300" as="targetPoint" />
            <Array as="points">
              <mxPoint x="-370" y="320" />
              <mxPoint x="-210" y="320" />
              <mxPoint x="-210" y="370" />
              <mxPoint x="-290" y="370" />
              <mxPoint x="-290" y="300" />
            </Array>
          </mxGeometry>
        </mxCell>
        <mxCell id="LukmQ__puzyjG5yde1o3-16" value="" style="edgeStyle=orthogonalEdgeStyle;rounded=0;orthogonalLoop=1;jettySize=auto;html=1;fontSize=16;" edge="1" parent="1" source="LukmQ__puzyjG5yde1o3-13" target="LukmQ__puzyjG5yde1o3-1">
          <mxGeometry relative="1" as="geometry" />
        </mxCell>
        <mxCell id="LukmQ__puzyjG5yde1o3-13" value="注册etw回调" style="rounded=1;whiteSpace=wrap;html=1;fontSize=16;" vertex="1" parent="1">
          <mxGeometry x="360" y="540" width="120" height="60" as="geometry" />
        </mxCell>
        <mxCell id="LukmQ__puzyjG5yde1o3-15" value="" style="edgeStyle=orthogonalEdgeStyle;rounded=0;orthogonalLoop=1;jettySize=auto;html=1;fontSize=16;" edge="1" parent="1" source="LukmQ__puzyjG5yde1o3-14" target="LukmQ__puzyjG5yde1o3-13">
          <mxGeometry relative="1" as="geometry" />
        </mxCell>
        <mxCell id="LukmQ__puzyjG5yde1o3-14" value="启动" style="ellipse;whiteSpace=wrap;html=1;aspect=fixed;fontSize=16;" vertex="1" parent="1">
          <mxGeometry x="380" y="405" width="80" height="80" as="geometry" />
        </mxCell>
        <mxCell id="LukmQ__puzyjG5yde1o3-32" value="" style="edgeStyle=orthogonalEdgeStyle;rounded=0;orthogonalLoop=1;jettySize=auto;html=1;" edge="1" parent="1" source="LukmQ__puzyjG5yde1o3-19" target="LukmQ__puzyjG5yde1o3-1">
          <mxGeometry relative="1" as="geometry" />
        </mxCell>
        <mxCell id="LukmQ__puzyjG5yde1o3-19" value="内存地址" style="rounded=0;whiteSpace=wrap;html=1;fontSize=16;" vertex="1" parent="1">
          <mxGeometry x="240" y="660" width="80" height="40" as="geometry" />
        </mxCell>
        <mxCell id="LukmQ__puzyjG5yde1o3-35" style="edgeStyle=orthogonalEdgeStyle;rounded=0;orthogonalLoop=1;jettySize=auto;html=1;exitX=0.5;exitY=0;exitDx=0;exitDy=0;" edge="1" parent="1" source="LukmQ__puzyjG5yde1o3-23" target="LukmQ__puzyjG5yde1o3-19">
          <mxGeometry relative="1" as="geometry" />
        </mxCell>
        <mxCell id="LukmQ__puzyjG5yde1o3-23" value="主动释放对应内存空间" style="rounded=1;whiteSpace=wrap;html=1;fontSize=16;" vertex="1" parent="1">
          <mxGeometry x="220" y="790" width="120" height="60" as="geometry" />
        </mxCell>
        <mxCell id="LukmQ__puzyjG5yde1o3-25" value="" style="rounded=0;whiteSpace=wrap;html=1;" vertex="1" parent="1">
          <mxGeometry x="580" y="1010" width="120" height="60" as="geometry" />
        </mxCell>
        <mxCell id="LukmQ__puzyjG5yde1o3-27" value="&lt;font style=&quot;font-size: 17px;&quot;&gt;模拟器进程&lt;/font&gt;" style="text;html=1;align=center;verticalAlign=middle;resizable=0;points=[];autosize=1;strokeColor=none;fillColor=none;" vertex="1" parent="1">
          <mxGeometry x="310" y="350" width="110" height="30" as="geometry" />
        </mxCell>
        <mxCell id="LukmQ__puzyjG5yde1o3-28" value="&lt;font style=&quot;font-size: 17px;&quot;&gt;外挂进程/驱动&lt;/font&gt;" style="text;html=1;align=center;verticalAlign=middle;resizable=0;points=[];autosize=1;strokeColor=none;fillColor=none;" vertex="1" parent="1">
          <mxGeometry x="-5" y="360" width="130" height="30" as="geometry" />
        </mxCell>
        <mxCell id="LukmQ__puzyjG5yde1o3-29" value="" style="rounded=0;whiteSpace=wrap;html=1;" vertex="1" parent="1">
          <mxGeometry x="-520" y="190" width="120" height="60" as="geometry" />
        </mxCell>
        <mxCell id="LukmQ__puzyjG5yde1o3-30" value="&lt;span style=&quot;font-size: 16px; text-wrap-mode: nowrap;&quot;&gt;远程内存申请/&lt;/span&gt;&lt;div style=&quot;font-size: 16px; text-wrap-mode: nowrap;&quot;&gt;注入/访问保护修改&lt;/div&gt;" style="rounded=1;whiteSpace=wrap;html=1;" vertex="1" parent="1">
          <mxGeometry x="-10" y="650" width="130" height="60" as="geometry" />
        </mxCell>
        <mxCell id="LukmQ__puzyjG5yde1o3-31" value="" style="edgeStyle=orthogonalEdgeStyle;rounded=0;orthogonalLoop=1;jettySize=auto;html=1;" edge="1" parent="1" source="LukmQ__puzyjG5yde1o3-30" target="LukmQ__puzyjG5yde1o3-19">
          <mxGeometry relative="1" as="geometry" />
        </mxCell>
        <mxCell id="LukmQ__puzyjG5yde1o3-33" value="callback调用" style="text;html=1;align=center;verticalAlign=middle;resizable=0;points=[];autosize=1;strokeColor=none;fillColor=none;" vertex="1" parent="1">
          <mxGeometry x="290" y="630" width="90" height="30" as="geometry" />
        </mxCell>
      </root>
    </mxGraphModel>
  </diagram>
</mxfile>
